# xmcd
#
# Track frame offsets:
#	182
#	22175
#	43240
#	56500
#	71585
#	87332
#	103892
#	119050
#	134865
#	152032
#
# Disc length: 2245
#
# Revision: 3
# Processed by: cddbd v1.5.2PL0 Copyright (c) Steve Scherf et al.
# Submitted via: Broken Cross Disk Manager 3.94.2201
#
DISCID=9b08c30a
DTITLE=Various Artist - From Nashville with Love
DYEAR=1997
DGENRE=
TTITLE0=Wynonna Judd - To Be Loved By You
TTITLE1=LeAnn Rimes - I Will Always Love You
TTITLE2=Hal Ketchum - Stay Forever
TTITLE3=Tim McGraw - Can't Be Really Gone
TTITLE4=David Kersch - Goodnight Sweetheart
TTITLE5=Sawyer Brown - Treat Her Right
TTITLE6=Jeff Carson - Not On Your Love
TTITLE7=Perfect Stranger - You Have The Right To Remain Silent
TTITLE8=Hank William's Jr. - All For The Love OF Sunshine
TTITLE9=Boy Howdy - She'd Give Anything
EXTD=
EXTT0=
EXTT1=
EXTT2=
EXTT3=
EXTT4=
EXTT5=
EXTT6=
EXTT7=
EXTT8=
EXTT9=
PLAYORDER=
